<svg id="Capa_1" enable-background="new 0 0 512.959 512.959" height="512" viewBox="0 0 512.959 512.959" width="512" xmlns="http://www.w3.org/2000/svg"><g><g><g fill="#fee45a"><path d="m136.621 95.354h-10.156c-16.957 0-30.704-13.747-30.704-30.704v-16.52c0-3.545 2.873-6.418 6.418-6.418h3.738c16.957 0 30.704 13.747 30.704 30.704z"/><path d="m106.339 123.907 4.712 8.997c7.868 15.022 26.424 20.821 41.445 12.953l14.634-7.665c3.14-1.645 4.352-5.523 2.708-8.663l-1.735-3.312c-7.868-15.022-26.424-20.821-41.445-12.953z"/><path d="m82.276 153.875h-10.156c-16.957 0-30.704-13.747-30.704-30.704v-16.52c0-3.545 2.873-6.418 6.418-6.418h3.738c16.957 0 30.704 13.747 30.704 30.704z"/><path d="m51.756 241.713h-10.156c-16.957 0-30.704-13.747-30.704-30.704v-16.52c0-3.545 2.873-6.418 6.418-6.418h3.738c16.957 0 30.704 13.747 30.704 30.704z"/><path d="m52.76 262.29 9.639 3.201c16.093 5.344 33.472-3.37 38.816-19.463l5.206-15.678c1.117-3.364-.704-6.997-4.068-8.114l-3.548-1.178c-16.093-5.344-33.472 3.37-38.816 19.463z"/><path d="m77.131 361.114 10.079-1.253c16.828-2.091 28.775-17.428 26.683-34.256l-2.037-16.394c-.437-3.518-3.643-6.015-7.161-5.578l-3.71.461c-16.828 2.091-28.775 17.428-26.683 34.256z"/><path d="m62.828 330.796-9.502 3.587c-15.865 5.989-33.581-2.016-39.57-17.88l-5.835-15.455c-1.252-3.316.421-7.019 3.738-8.271l3.497-1.32c15.865-5.989 33.581 2.016 39.57 17.88z"/><path d="m101.994 397.18-7.182 7.182c-11.991 11.991-31.432 11.991-43.422 0l-11.681-11.682c-2.506-2.506-2.506-6.57 0-9.076l2.643-2.643c11.991-11.991 31.432-11.991 43.422 0z"/><path d="m165.853 446.674-4.958 8.864c-8.278 14.8-26.986 20.087-41.786 11.81l-14.418-8.064c-3.094-1.73-4.199-5.641-2.469-8.734l1.825-3.263c8.278-14.8 26.986-20.087 41.786-11.81z"/><path d="m195.722 458.369 5.078-8.796c8.479-14.686 3.447-33.464-11.239-41.943l-14.306-8.26c-3.07-1.772-6.995-.721-8.767 2.349l-1.869 3.237c-8.479 14.686-3.447 33.464 11.239 41.943z"/><path d="m376.338 95.354h10.156c16.957 0 30.704-13.747 30.704-30.704v-16.52c0-3.545-2.873-6.418-6.418-6.418h-3.738c-16.957 0-30.704 13.747-30.704 30.704z"/><path d="m406.621 123.907-4.712 8.997c-7.868 15.022-26.424 20.821-41.445 12.953l-14.634-7.665c-3.14-1.645-4.352-5.523-2.707-8.663l1.734-3.312c7.868-15.022 26.424-20.821 41.445-12.953z"/><path d="m430.683 153.875h10.156c16.957 0 30.704-13.747 30.704-30.704v-16.52c0-3.545-2.873-6.418-6.418-6.418h-3.738c-16.957 0-30.704 13.747-30.704 30.704z"/><path d="m461.203 241.713h10.156c16.957 0 30.704-13.747 30.704-30.704v-16.52c0-3.545-2.873-6.418-6.418-6.418h-3.738c-16.957 0-30.704 13.747-30.704 30.704z"/><path d="m460.2 262.29-9.639 3.201c-16.093 5.344-33.472-3.37-38.816-19.463l-5.206-15.678c-1.117-3.364.704-6.997 4.068-8.114l3.548-1.178c16.093-5.344 33.472 3.37 38.816 19.463z"/><path d="m435.829 361.114-10.079-1.253c-16.828-2.091-28.775-17.428-26.683-34.256l2.037-16.394c.437-3.518 3.643-6.015 7.161-5.578l3.71.461c16.828 2.091 28.775 17.428 26.683 34.256z"/><path d="m450.132 330.796 9.502 3.587c15.865 5.989 33.581-2.016 39.57-17.88l5.835-15.455c1.252-3.316-.421-7.019-3.738-8.271l-3.497-1.32c-15.865-5.989-33.581 2.016-39.57 17.88z"/><path d="m410.965 397.18 7.182 7.182c11.991 11.991 31.432 11.991 43.422 0l11.681-11.681c2.506-2.506 2.506-6.57 0-9.076l-2.643-2.643c-11.991-11.991-31.432-11.991-43.422 0z"/><path d="m347.107 446.674 4.958 8.864c8.278 14.8 26.986 20.087 41.786 11.81l14.418-8.064c3.094-1.73 4.199-5.641 2.469-8.734l-1.825-3.263c-8.278-14.8-26.986-20.087-41.786-11.81z"/><path d="m317.238 458.369-5.078-8.796c-8.479-14.686-3.447-33.464 11.239-41.943l14.306-8.26c3.07-1.772 6.995-.721 8.767 2.349l1.869 3.237c8.479 14.686 3.447 33.464-11.239 41.943z"/></g><path d="m269.038 128.997 25.13 50.92c2.04 4.133 5.983 6.998 10.545 7.661l56.193 8.165c11.487 1.669 16.073 15.785 7.762 23.888l-40.662 39.636c-3.301 3.217-4.807 7.853-4.028 12.396l9.599 55.966c1.962 11.44-10.046 20.165-20.32 14.763l-50.261-26.424c-4.08-2.145-8.954-2.145-13.034 0l-50.261 26.424c-10.274 5.401-22.282-3.323-20.32-14.763l9.599-55.966c.779-4.543-.727-9.179-4.028-12.396l-40.662-39.636c-8.312-8.102-3.725-22.218 7.762-23.888l56.193-8.165c4.561-.663 8.505-3.528 10.545-7.661l25.13-50.92c5.138-10.409 19.981-10.409 25.118 0z" fill="#fed402"/><g><path d="m238.344 286.705c.779-4.543-.727-9.179-4.028-12.396l-40.662-39.636c-8.312-8.102-3.725-22.218 7.762-23.888l56.193-8.165c4.561-.663 8.505-3.528 10.545-7.661l16.719-33.877-15.835-32.085c-5.137-10.409-19.98-10.409-25.117 0l-25.13 50.92c-2.04 4.133-5.983 6.998-10.545 7.661l-56.193 8.165c-11.487 1.669-16.073 15.785-7.762 23.888l40.662 39.636c3.301 3.217 4.807 7.853 4.028 12.396l-9.599 55.966c-1.962 11.44 10.046 20.165 20.32 14.763l31.974-16.81z" fill="#fac600"/></g></g><g><path d="m511.717 293.05c-1.531-3.388-4.289-5.977-7.767-7.29l-3.497-1.32c-9.547-3.604-19.927-3.276-29.226.927-1.371.619-2.689 1.317-3.96 2.079.938-8.079 1.436-16.29 1.436-24.616 0-4.56-.152-9.1-.437-13.617h3.094c21.066 0 38.204-17.138 38.204-38.204v-16.52c0-7.674-6.244-13.918-13.918-13.918h-3.738c-13.965 0-26.196 7.537-32.858 18.753-4.111-13.132-9.513-25.849-16.155-38.005 20.114-1.071 36.149-17.771 36.149-38.147v-16.52c0-7.675-6.244-13.918-13.918-13.918h-3.738c-21.066 0-38.205 17.139-38.205 38.205v.548c-8.517-10.812-17.995-20.698-28.3-29.575 17.042-3.835 29.816-19.078 29.816-37.261v-16.521c0-7.674-6.244-13.918-13.918-13.918h-3.738c-21.066 0-38.204 17.138-38.204 38.204v10.327c-11.59-7.23-23.914-13.366-36.853-18.294-3.871-1.475-8.204.469-9.678 4.339-1.474 3.871.469 8.204 4.339 9.678 15.903 6.056 30.809 14.07 44.454 23.819-13.402.358-26.237 7.755-32.889 20.451l-1.734 3.312c-3.56 6.798-.926 15.226 5.872 18.787l14.634 7.664c5.55 2.907 11.59 4.38 17.681 4.38 3.83 0 7.681-.583 11.441-1.758 9.551-2.985 17.394-9.448 22.16-18.221 3.41 4.114 6.673 8.374 9.769 12.784 15.374 21.905 25.971 46.362 31.413 72.16-2.527-2.276-5.368-4.234-8.491-5.799-9.122-4.574-19.479-5.322-29.165-2.106l-3.548 1.178c-7.283 2.419-11.241 10.312-8.822 17.595l5.206 15.678c3.216 9.685 10.011 17.537 19.133 22.111 5.396 2.705 11.222 4.072 17.087 4.072 4.05 0 8.121-.652 12.077-1.966l.542-.18c-.838 17.391-3.943 34.195-9.017 50.13-4.51-13.547-16.463-24.03-31.55-25.905l-3.71-.461c-3.69-.457-7.336.547-10.269 2.832s-4.801 5.575-5.259 9.263l-2.038 16.394c-2.553 20.553 11.805 39.37 32.156 42.467-16.481 26.335-38.995 48.524-65.602 64.603 3.091-9.853 2.216-20.917-3.342-30.543l-1.869-3.237c-1.859-3.22-4.86-5.523-8.451-6.485s-7.342-.469-10.562 1.391l-14.307 8.26c-18.243 10.532-24.516 33.944-13.983 52.188l.261.452c-15.807 4.096-32.376 6.278-49.445 6.278s-33.638-2.182-49.445-6.278l.261-.452c10.533-18.244 4.26-41.655-13.983-52.188l-14.307-8.26c-3.22-1.859-6.97-2.353-10.562-1.391-3.591.962-6.592 3.266-8.451 6.485l-1.869 3.237c-5.56 9.63-6.428 20.695-3.331 30.55-26.612-16.08-49.13-38.27-65.613-64.609 20.351-3.097 34.71-21.914 32.156-42.468l-2.038-16.393c-.458-3.689-2.326-6.979-5.259-9.264-2.932-2.284-6.576-3.288-10.269-2.832l-3.71.461c-15.087 1.875-27.04 12.358-31.55 25.905-5.075-15.935-8.18-32.739-9.017-50.13l.542.18c3.957 1.314 8.026 1.966 12.078 1.966 5.864 0 11.691-1.367 17.087-4.072 9.122-4.574 15.917-12.427 19.133-22.111l5.206-15.678c2.418-7.283-1.539-15.176-8.822-17.595l-3.548-1.178c-9.685-3.216-20.042-2.469-29.165 2.106-3.122 1.565-5.964 3.523-8.491 5.799 5.443-25.798 16.039-50.255 31.413-72.16 3.096-4.411 6.358-8.671 9.769-12.784 4.766 8.773 12.608 15.236 22.16 18.221 3.761 1.176 7.611 1.758 11.442 1.758 6.09 0 12.131-1.473 17.681-4.38l14.634-7.665c6.797-3.561 9.431-11.989 5.871-18.787l-1.735-3.312c-6.65-12.696-19.486-20.093-32.888-20.451 13.645-9.749 28.551-17.762 44.454-23.819 3.871-1.474 5.813-5.807 4.339-9.678-1.474-3.87-5.804-5.813-9.678-4.339-12.939 4.928-25.263 11.063-36.853 18.294v-10.326c0-21.066-17.138-38.204-38.204-38.204h-3.738c-7.675 0-13.918 6.244-13.918 13.918v16.52c0 18.182 12.772 33.428 29.812 37.264-10.303 8.876-19.78 18.762-28.296 29.572v-.548c0-21.066-17.139-38.205-38.205-38.205h-3.738c-7.674 0-13.918 6.244-13.918 13.918v16.52c0 20.376 16.035 37.076 36.149 38.147-6.643 12.157-12.045 24.875-16.156 38.008-6.662-11.217-18.891-18.756-32.857-18.756h-3.738c-7.674 0-13.918 6.244-13.918 13.918v16.52c0 21.066 17.138 38.204 38.204 38.204h3.094c-.285 4.517-.437 9.057-.437 13.617 0 8.326.498 16.537 1.436 24.616-1.271-.761-2.59-1.459-3.96-2.078-9.299-4.202-19.678-4.531-29.225-.927l-3.498 1.32c-3.478 1.313-6.236 3.902-7.767 7.29-1.531 3.388-1.651 7.169-.338 10.647l5.834 15.455c5.769 15.281 20.341 24.712 35.783 24.712 4.475 0 9.025-.792 13.453-2.464l2.922-1.103c3.358 8.535 7.261 16.796 11.652 24.753-11.813-2.023-24.399 1.506-33.5 10.607l-2.644 2.644c-5.426 5.427-5.426 14.256 0 19.683l11.681 11.681c7.448 7.448 17.231 11.172 27.014 11.172 9.784 0 19.567-3.724 27.015-11.172l1.689-1.689c5.843 6.223 12.055 12.094 18.602 17.578-9.393 2.666-17.774 8.897-22.906 18.073l-1.825 3.263c-3.746 6.698-1.344 15.195 5.354 18.941l14.417 8.064c5.886 3.292 12.277 4.854 18.585 4.854 13.397 0 26.417-7.049 33.408-19.548l1.665-2.977c26.66 12.093 56.245 18.831 87.374 18.831s60.714-6.738 87.374-18.831l1.665 2.977c6.992 12.501 20.01 19.548 33.408 19.548 6.307 0 12.7-1.563 18.585-4.854l14.417-8.064c6.697-3.746 9.099-12.243 5.354-18.94l-1.825-3.263c-5.135-9.18-13.527-15.392-22.926-18.056 6.555-5.489 12.773-11.366 18.622-17.595l1.689 1.689c7.448 7.448 17.231 11.172 27.015 11.172 9.783 0 19.566-3.724 27.014-11.172l11.681-11.681c5.426-5.426 5.426-14.256 0-19.683l-2.643-2.643c-9.102-9.102-21.689-12.628-33.503-10.603 4.393-7.957 8.296-16.221 11.655-24.757l2.922 1.103c4.429 1.672 8.977 2.464 13.453 2.464 15.441 0 30.015-9.433 35.783-24.712l5.834-15.455c1.315-3.48 1.195-7.261-.336-10.649zm-43.014-74.275c0-12.795 10.41-23.204 23.205-23.204h2.656v15.438c0 12.795-10.409 23.204-23.204 23.204h-2.657zm-84.865-146.359c0-12.795 10.409-23.204 23.204-23.204h2.657v15.438c0 12.795-10.41 23.205-23.205 23.205h-2.656zm11.426 57.008c-2.875 5.491-7.717 9.533-13.633 11.381s-12.198 1.283-17.688-1.593l-13.676-7.163 1.232-2.353c5.937-11.334 19.988-15.726 31.322-9.789l13.675 7.163zm42.919 16.951v-15.438c0-12.795 10.41-23.205 23.205-23.205h2.656v15.438c0 12.795-10.409 23.204-23.204 23.204h-2.657zm10.014 111.998c-5.882 1.953-12.173 1.499-17.713-1.279-5.541-2.778-9.667-7.547-11.621-13.43l-4.865-14.651 2.521-.837c5.881-1.954 12.172-1.499 17.713 1.279s9.667 7.548 11.621 13.43l4.865 14.65zm-344.937-193.724v-15.437h2.657c12.795 0 23.204 10.409 23.204 23.204v15.438h-2.656c-12.795 0-23.205-10.41-23.205-23.205zm26.878 55.259c11.334-5.937 25.385-1.546 31.322 9.788l1.233 2.354-13.676 7.163c-5.489 2.876-11.771 3.442-17.688 1.592-5.916-1.849-10.758-5.891-13.633-11.381l-1.233-2.353zm-81.222 3.263v-15.438h2.656c12.795 0 23.205 10.41 23.205 23.205v15.438h-2.657c-12.795-.001-23.204-10.41-23.204-23.205zm18.19 119.714c1.954-5.882 6.081-10.652 11.621-13.43 5.542-2.779 11.832-3.232 17.713-1.279l2.521.837-4.865 14.651c-1.954 5.882-6.081 10.652-11.621 13.43-5.542 2.778-11.833 3.232-17.714 1.279l-2.521-.837zm-22.849-8.672h-2.657c-12.795 0-23.204-10.409-23.204-23.204v-15.438h2.656c12.795 0 23.205 10.409 23.205 23.204zm6.42 93.154c-11.973 4.519-25.385-1.542-29.905-13.513l-5.452-14.443 2.485-.938c5.798-2.19 12.102-1.99 17.75.563 5.648 2.552 9.964 7.151 12.153 12.95l5.453 14.443zm51.233-15.829 2.636-.328 1.904 15.32c1.578 12.697-7.469 24.311-20.166 25.889l-2.636.328-1.904-15.32c-1.577-12.697 7.47-24.311 20.166-25.889zm-12.4 87.52c-9.048 9.047-23.768 9.047-32.816 0l-10.916-10.917 1.878-1.878c9.049-9.047 23.769-9.046 32.816 0l10.917 10.916zm64.839 52.819c-6.246 11.167-20.411 15.17-31.579 8.925l-13.474-7.536 1.297-2.318c6.246-11.167 20.411-15.17 31.579-8.925l13.474 7.536zm39.956-6.054-1.328 2.301-13.37-7.719c-11.081-6.397-14.891-20.617-8.493-31.698l1.328-2.3 13.37 7.719c11.08 6.398 14.89 20.617 8.493 31.697zm139.047-5.417-13.37 7.719-1.328-2.301c-6.397-11.081-2.587-25.3 8.493-31.697l13.37-7.719 1.328 2.3c6.398 11.08 2.588 25.3-8.493 31.698zm69.014 10.542 1.297 2.319-13.474 7.536c-11.166 6.246-25.333 2.243-31.579-8.925l-1.297-2.318 13.474-7.536c11.168-6.247 25.334-2.243 31.579 8.924zm4.143-124.417 1.904-15.32 2.636.328c12.697 1.578 21.743 13.191 20.166 25.889l-1.904 15.32-2.636-.328c-12.697-1.578-21.744-13.192-20.166-25.889zm58.795 59.732 1.878 1.878-10.916 10.917c-9.047 9.046-23.768 9.047-32.816 0l-1.878-1.878 10.917-10.916c9.046-9.047 23.767-9.048 32.815-.001zm26.883-72.409c-4.519 11.97-17.933 18.032-29.905 13.513l-2.485-.938 5.453-14.443c2.189-5.799 6.505-10.397 12.153-12.95s11.953-2.752 17.751-.563l2.485.938z"/><path d="m196.373 272.931c1.197-6.978-1.115-14.094-6.185-19.035l-40.662-39.636c-2.613-2.547-2.021-5.511-1.646-6.667s1.639-3.903 5.251-4.428l20.888-3.035c4.099-.595 6.939-4.401 6.343-8.5-.595-4.099-4.398-6.941-8.5-6.343l-20.888 3.035c-8.16 1.186-14.812 6.794-17.36 14.636s-.463 16.289 5.442 22.044l40.662 39.636c1.533 1.495 2.232 3.647 1.87 5.758l-9.599 55.966c-1.394 8.127 1.884 16.186 8.555 21.033 3.77 2.739 8.179 4.13 12.62 4.13 3.417 0 6.853-.825 10.027-2.493l40.796-21.448c3.666-1.928 5.076-6.462 3.148-10.129-1.927-3.666-6.461-5.076-10.129-3.148l-40.796 21.448c-3.229 1.699-5.866.22-6.85-.495-.983-.714-3.205-2.765-2.587-6.362z"/><path d="m205.982 195.486 3.342-.486c7.005-1.018 13.059-5.415 16.192-11.763l25.13-50.92c1.615-3.273 4.617-3.626 5.833-3.626s4.218.353 5.833 3.626l25.13 50.92c3.133 6.348 9.187 10.746 16.191 11.763l8.521 1.238c.366.053.729.079 1.088.079 3.665 0 6.87-2.689 7.413-6.422.596-4.099-2.244-7.905-6.343-8.5l-8.521-1.238c-2.119-.308-3.949-1.638-4.897-3.558l-25.13-50.92c-3.649-7.394-11.039-11.987-19.284-11.987s-15.635 4.593-19.284 11.987l-25.13 50.92c-.948 1.92-2.778 3.25-4.897 3.558l-3.343.486c-4.099.596-6.939 4.401-6.343 8.5.594 4.098 4.405 6.938 8.499 6.343z"/><path d="m322.771 253.896c-5.069 4.941-7.381 12.057-6.185 19.034l9.599 55.967c.617 3.597-1.604 5.647-2.587 6.361-.984.715-3.621 2.194-6.85.495l-40.796-21.448c-3.666-1.927-8.201-.518-10.129 3.148-1.927 3.667-.518 8.201 3.148 10.129l40.796 21.448c3.174 1.668 6.61 2.493 10.027 2.493 4.44 0 8.851-1.392 12.62-4.13 6.671-4.847 9.949-12.906 8.555-21.032l-9.599-55.967c-.362-2.11.337-4.263 1.87-5.757l40.662-39.636c5.905-5.755 7.99-14.202 5.442-22.044s-9.2-13.451-17.36-14.636l-15.71-2.283c-4.099-.595-7.905 2.245-8.5 6.343-.596 4.099 2.244 7.905 6.343 8.5l15.71 2.283c3.612.525 4.875 3.271 5.251 4.428.376 1.156.967 4.12-1.646 6.667z"/></g></g></svg>